<svg width="498" height="451" viewBox="0 0 498 451" fill="none" xmlns="http://www.w3.org/2000/svg">
<path d="M210.437 435.814H497.367C489.794 422.147 473.702 426.384 456.377 426.02C453.139 415.802 444.166 416.017 424.837 419.163C449.325 396.831 441.685 374.891 398.977 389.192C447.758 322.784 372.139 307.607 360.972 306.278C346.901 304.6 282.219 314.943 316.502 384.097C274.971 366.86 263.608 387.234 294.953 423.083C265.009 424.487 229.13 431.064 210.437 435.814Z" fill="#93E5B6"/>
<path d="M0 435.814H226.884C212.167 432.395 181.671 428.347 167.952 428.058C165.388 419.967 158.283 420.137 142.977 422.628C162.368 404.944 156.318 387.571 122.5 398.895C161.127 346.308 101.247 334.29 92.404 333.238C81.2616 331.909 30.0419 340.1 57.1899 394.861C24.302 381.211 15.3047 397.345 40.1252 425.733C16.4133 426.844 7.99968 429.627 0 435.814Z" fill="#93E5B6"/>
<path d="M335.765 68.5636C335.726 68.6948 335.699 68.8293 335.661 68.9616C337.521 62.8686 340.573 57.2288 344.683 52.3744C351.916 43.8336 362.873 44.3485 370.159 48.2743C370.15 48.2671 370.14 48.2599 370.13 48.2527C370.15 48.2639 370.168 48.2777 370.187 48.2879C370.492 48.452 370.771 48.6352 371.062 48.8106C373.288 50.1414 375.309 51.8401 376.981 53.8556C378.884 56.1616 380.298 58.8258 381.532 61.516C382.788 64.1994 383.811 66.9728 385.261 69.4726C385.993 70.712 386.818 71.8942 387.833 72.8823C388.829 73.8609 390.042 74.7068 391.241 75.5111C396.059 78.7611 401.788 80.4144 407.334 82.3615C410.156 83.3233 412.866 84.617 415.374 86.216C417.825 87.884 420.167 89.7873 421.918 92.1784C419.969 89.9602 417.59 88.1811 415.075 86.6968C412.546 85.2256 409.857 84.0472 407.061 83.2073C404.232 82.367 401.424 81.4461 398.636 80.4202C395.861 79.3794 393.098 78.1521 390.604 76.471C389.369 75.6167 388.155 74.756 387.056 73.6561C385.966 72.5704 385.104 71.2981 384.354 69.9945C382.87 67.3653 381.862 64.5718 380.737 61.8642C379.769 59.5314 378.646 57.2678 377.234 55.19C380.973 61.6629 382.307 69.6787 385.378 73.6712C392.453 82.868 406.481 81.8042 418.228 90.4843C430.391 99.4721 431.784 121.032 416.195 133.643C401.503 145.527 368.265 142.224 349.391 121.406C337.133 107.887 332.454 92.468 333.785 78.4392C333.092 84.5241 333.355 90.6972 334.727 96.6386C335.81 101.226 337.492 105.668 339.761 109.795C342.03 113.92 344.828 117.755 348.043 121.201C351.258 124.643 354.742 127.868 358.6 130.58C362.428 133.331 366.609 135.579 370.975 137.367C375.342 139.153 379.928 140.427 384.607 141.141C389.279 141.878 394.056 142.129 398.787 141.629C389.355 143.033 379.575 141.618 370.634 138.226C361.67 134.787 353.674 129.028 347.195 121.979C340.73 114.92 335.822 106.255 333.876 96.8275C331.889 87.4281 332.655 77.551 335.765 68.5636Z" fill="#11405C"/>
<path d="M348.002 414.383C347.906 415.236 347.28 428.326 346.846 431.936C345.314 433.492 336.367 432.407 335.843 430.476C335.319 428.545 336.582 412.863 336.582 412.863L348.002 414.383Z" fill="#D7A28E"/>
<path d="M347.573 446.836C346.295 447.42 318.671 447.145 315.953 447.173C313.235 447.2 314.179 437.411 322.571 437.128L332.411 429.025C332.83 427.056 333.402 424.875 333.926 423.988C334.875 422.401 338.967 422.17 341.611 423.905C342.838 424.715 343.391 426.431 343.57 428.14C346.249 428.17 348.255 428.462 348.443 429.94C348.706 431.987 348.858 446.252 347.573 446.836Z" fill="#FFC439"/>
<path d="M330.813 441.451C330.585 440.499 326.455 436.393 322.189 437.201C322.189 437.201 324.074 434.367 328.19 436.6C331.227 438.25 330.813 441.451 330.813 441.451Z" fill="#DBA12C"/>
<path d="M342.844 436.903C342.86 438.451 343.818 439.696 344.984 439.684C346.15 439.672 347.082 438.407 347.065 436.859C347.048 435.31 346.09 434.065 344.924 434.078C343.759 434.09 342.827 435.355 342.844 436.903Z" fill="#DBA12C"/>
<path d="M334.195 435.581C332.995 434.922 326.981 434.603 328.308 433.779C329.635 432.953 334.129 433.86 334.474 434.906C334.819 435.952 334.195 435.581 334.195 435.581Z" fill="#DBA12C"/>
<path d="M336.033 433.514C334.834 432.855 328.82 432.537 330.146 431.712C331.474 430.886 335.968 431.793 336.313 432.839C336.658 433.885 336.033 433.514 336.033 433.514Z" fill="#DBA12C"/>
<path d="M337.872 431.448C336.672 430.788 330.658 430.47 331.985 429.645C333.312 428.82 337.806 429.726 338.152 430.772C338.496 431.818 337.872 431.448 337.872 431.448Z" fill="#DBA12C"/>
<path d="M348.276 444.348C348.276 444.327 336.095 445.039 329.281 445.074C328.52 445.078 327.882 443.133 321.061 443.11C316.337 443.025 314.753 444.537 314.59 444.705C314.282 445.018 313.717 447.964 315.056 448.185C316.394 448.406 347.074 448.371 347.587 447.84C348.601 446.792 348.276 444.348 348.276 444.348Z" fill="#11405C"/>
<path d="M395.952 211.132L349.673 419.35H332.802L330.668 207.382L395.952 211.132Z" fill="#2F627C"/>
<path d="M382.12 273.356L349.677 419.345C349.677 419.345 363.642 343.13 363.208 334.869C362.727 325.684 355.922 327.437 351.397 324.146C346.895 320.836 363.69 321.708 364.808 318.434C365.951 315.142 359.456 316.418 354.171 313.789C348.866 311.158 359.995 311.646 367.567 305.381C363.31 292.626 359.45 261.811 361.969 239.697C362.145 238.144 382.12 273.356 382.12 273.356Z" fill="#11405C"/>
<path d="M413.786 415.115C413.833 415.972 415.378 428.986 415.546 432.618C414.293 434.406 405.288 434.813 404.453 432.996C403.618 431.178 402.271 415.502 402.271 415.502L413.786 415.115Z" fill="#D7A28E"/>
<path d="M415.905 448.218C414.654 448.857 387.044 449.789 384.33 449.936C381.616 450.082 382.132 440.261 390.503 439.611L399.98 431.086C400.312 429.101 400.788 426.897 401.273 425.988C402.152 424.361 406.229 423.952 408.947 425.569C410.209 426.325 410.836 428.015 411.089 429.715C413.767 429.628 415.784 429.832 416.037 431.3C416.388 433.333 417.164 447.578 415.905 448.218Z" fill="#FFC439"/>
<path d="M398.926 443.57C398.657 442.629 394.351 438.707 390.125 439.701C390.125 439.701 391.885 436.787 396.093 438.839C399.2 440.354 398.926 443.57 398.926 443.57Z" fill="#DBA12C"/>
<path d="M410.747 438.501C410.83 440.047 411.842 441.249 413.006 441.186C414.171 441.123 415.046 439.818 414.962 438.272C414.878 436.726 413.866 435.524 412.702 435.587C411.538 435.65 410.663 436.955 410.747 438.501Z" fill="#DBA12C"/>
<path d="M402.048 437.558C400.821 436.952 394.799 436.897 396.088 436.014C397.378 435.132 401.907 435.841 402.298 436.871C402.688 437.901 402.048 437.558 402.048 437.558Z" fill="#DBA12C"/>
<path d="M403.795 435.413C402.567 434.807 396.545 434.752 397.835 433.87C399.125 432.987 403.654 433.696 404.044 434.726C404.435 435.756 403.795 435.413 403.795 435.413Z" fill="#DBA12C"/>
<path d="M405.541 433.268C404.314 432.661 398.292 432.606 399.582 431.724C400.871 430.842 405.401 431.551 405.791 432.581C406.181 433.61 405.541 433.268 405.541 433.268Z" fill="#DBA12C"/>
<path d="M416.499 445.702C416.498 445.681 404.36 446.924 397.554 447.257C396.794 447.294 396.072 445.379 389.256 445.654C384.532 445.775 383.017 447.356 382.86 447.53C382.567 447.857 382.132 450.824 383.478 450.987C384.825 451.15 415.474 449.773 415.963 449.22C416.931 448.129 416.499 445.702 416.499 445.702Z" fill="#11405C"/>
<path d="M410.914 200.09L418.563 421.05L401.127 421.051L362.426 242.216L346.676 205.75L410.914 200.09Z" fill="#2F627C"/>
<path d="M410.91 200.08L418.565 421.044L415.071 421.04C414.495 406.475 411.651 335.982 409.222 328.074C406.524 319.281 400.349 322.636 395.16 320.544C389.989 318.426 406.492 315.191 406.781 311.744C407.089 308.273 401.099 311.089 395.334 309.823C389.548 308.56 400.462 306.329 406.285 298.411C412.111 290.515 405.04 226.247 403.005 226.262C401.443 226.278 385.372 215.113 376.165 206.697L410.91 200.08Z" fill="#11405C"/>
<path d="M346.945 103.235L307.295 123.816L315.214 148.482L349.677 141.236L350.767 102.366L346.945 103.235Z" fill="#FFC439"/>
<path d="M347.131 113.876V141.774L315.21 148.484L307.295 123.811L331.415 111.303C331.936 120.163 325.129 129.169 325.129 129.169V137.198C325.129 137.198 329.819 138.452 332.783 136.155C335.747 133.843 347.131 113.876 347.131 113.876Z" fill="#DBA12C"/>
<path d="M323.522 207.908C323.522 207.908 407.704 218.165 415.337 209.63C422.969 201.096 390.892 101.526 386.222 99.8091C381.551 98.0928 350.154 102.45 350.154 102.45C350.154 102.45 330.64 169.856 323.522 207.908Z" fill="#FFC439"/>
<path d="M415.332 209.629C412.846 212.4 402.307 213.185 389.175 212.984C394.933 211.307 406.577 207.733 406.875 206.257C407.258 204.306 400.246 200.733 397.972 199.438C395.698 198.144 405.948 188.462 406.522 182.61C407.096 176.758 337.022 189.903 328.119 186.221C328.374 185.272 330.557 176.277 330.834 175.347L404.075 158.188L401.436 139.112C410.7 168.592 419.794 204.652 415.332 209.629Z" fill="#DBA12C"/>
<path d="M356.905 98.4159C357.375 98.0018 370.607 94.1913 371.326 94.2689C372.045 94.3465 373.77 98.5219 374.403 99.818C375.036 101.113 372.147 106.656 370.468 107.648C368.789 108.641 364.669 107.229 363.397 106.422C363.397 106.422 360.948 109.049 358.101 109.292C355.255 109.535 354.736 100.324 356.905 98.4159Z" fill="#DBA12C"/>
<path d="M359.958 102.612C363.409 102.935 370.972 96.4979 369.899 93.9479C368.912 91.6071 367.708 84.8754 367.104 79.4095L355.775 89.0318C355.96 90.2637 356.106 102.256 359.958 102.612Z" fill="#D7A28E"/>
<path d="M367.966 72.5423C368.194 75.3756 367.891 78.1827 367.75 80.0351C367.227 87.1118 354.111 92.71 353.261 92.6112C350.149 92.2492 342.702 88.0632 343.577 82.2688C344.599 75.5205 346.075 74.7668 345.449 68.4302C345.382 67.8085 345.421 67.2629 345.534 66.754C347.568 67.0227 353.195 65.9292 354.473 64.0229C355.125 66.4777 362.314 67.8181 365.514 67.046C365.941 68.5356 364.875 74.9314 366.488 74.9505C366.874 74.9602 367.464 74.0115 367.966 72.5423Z" fill="#D7A28E"/>
<path d="M353.259 92.6164C353.302 92.8885 355.808 92.7572 358.609 91.4357C360.003 90.7831 361.135 89.8988 361.806 89.124C362.484 88.3407 362.681 87.7105 362.556 87.6363C362.415 87.5458 361.999 87.9792 361.255 88.5407C360.506 89.103 359.422 89.8011 358.116 90.4122C355.516 91.6461 353.184 92.2759 353.259 92.6164Z" fill="#C18C7C"/>
<path d="M366.988 79.5085C370.452 81.6388 373.008 73.6391 369.855 72.3267C368.945 71.9474 367.149 71.8119 366.714 73.6245C366.245 75.5806 366.229 79.042 366.988 79.5085Z" fill="#D7A28E"/>
<path d="M369.037 73.8073C368.305 74.3931 366.982 76.3569 367.91 77.8028C367.91 77.8028 367.881 76.817 368.392 76.2046L369.696 75.5719L368.377 75.5072L369.037 73.8073Z" fill="#11405C"/>
<path d="M352.49 75.7884C353.106 76.0161 351.223 78.3084 352.426 78.5134C353.628 78.718 351.683 79.2197 351.424 78.2712C351.166 77.3236 351.943 75.5867 352.49 75.7884Z" fill="#11405C"/>
<path d="M356.501 73.9644C356.244 74.6484 356.556 75.3972 357.196 75.6364C357.836 75.8753 358.561 75.5153 358.817 74.8308C359.073 74.1467 358.762 73.3974 358.122 73.1582C357.482 72.919 356.756 73.2799 356.501 73.9644Z" fill="#11405C"/>
<path d="M356.779 73.7373C356.709 73.9688 356.808 74.2036 357 74.2619C357.192 74.3196 357.405 74.1794 357.475 73.9485C357.545 73.7169 357.446 73.4818 357.253 73.4241C357.062 73.3662 356.848 73.5064 356.779 73.7373Z" fill="white"/>
<path d="M361.868 72.6236C362.215 72.6976 362.597 71.7707 362.299 71.5776C362.299 71.5776 357.09 69.0078 356.18 69.754C356.18 69.754 356.014 70.4213 356.063 70.6393C356.14 70.9824 356.568 71.4217 357.141 71.5432L361.868 72.6236Z" fill="#11405C"/>
<path d="M347.83 73.1172C347.854 73.8475 348.427 74.4215 349.11 74.3986C349.792 74.3764 350.326 73.7661 350.302 73.0358C350.278 72.3053 349.705 71.7319 349.022 71.7542C348.34 71.7771 347.806 72.3874 347.83 73.1172Z" fill="#11405C"/>
<path d="M348.001 72.8025C348.024 73.0426 348.205 73.222 348.405 73.2022C348.605 73.1827 348.748 72.972 348.724 72.7317C348.701 72.4908 348.52 72.3119 348.32 72.3316C348.12 72.3507 347.977 72.5614 348.001 72.8025Z" fill="white"/>
<path d="M347.063 70.2022C346.8 70.1893 346.716 69.5281 346.931 69.4253C346.931 69.4253 350.969 68.4585 351.236 68.9462C351.236 68.9462 351.426 69.5733 351.407 69.7552C351.378 70.0406 351.084 70.332 350.648 70.3103L347.063 70.2022Z" fill="#11405C"/>
<path d="M354.962 83.3201C351.137 84.0862 350.684 82.664 349.071 82.7274C348.188 82.7624 347.75 83.5315 348.065 84.2289C348.065 84.2289 349.575 87.5074 353.982 86.2107C356.76 85.3941 355.806 83.1517 354.962 83.3201Z" fill="white"/>
<path d="M411.364 135.366C411.364 135.366 425.067 157.091 425.625 160.551C425.864 162.027 420.906 167.838 417.329 168.865C412.517 170.247 408.491 166.395 406.721 164.148C405.494 162.59 394.548 147.013 394.548 147.013L411.364 135.366Z" fill="#D7A28E"/>
<path d="M381.696 99.4111L389.285 99.6723C389.285 99.6723 414.339 134.645 419.421 142.431C411.928 148.335 404.236 150.428 397.459 152.572C390.716 144.139 390.415 142.973 386.615 136.525C379.297 120.749 381.696 99.4111 381.696 99.4111Z" fill="#FFC439"/>
<path d="M381.879 120.302C382.505 123.631 391.582 146.927 397 151.996C397 151.996 390.44 147.934 387.287 139.401C384.087 130.74 381.879 120.302 381.879 120.302Z" fill="#DBA12C"/>
<path d="M109.031 448.263C98.6295 448.263 90.1682 439.801 90.1682 429.4V39.7099C90.1682 29.309 98.6295 20.8464 109.031 20.8464H305.01C315.411 20.8464 323.873 29.309 323.873 39.7099V429.4C323.873 439.801 315.411 448.263 305.01 448.263H109.031Z" fill="#2F627C"/>
<path d="M109.031 434.486C106.227 434.486 103.945 432.204 103.945 429.4V39.7098C103.945 36.9047 106.227 34.6233 109.031 34.6233H305.01C307.815 34.6233 310.097 36.9047 310.097 39.7098V429.4C310.097 432.204 307.815 434.486 305.01 434.486H109.031Z" fill="#CDEEFF"/>
<path d="M266.115 75.8647L56.3347 75.5782C49.7419 75.5693 44.4335 80.9158 44.4244 87.5124L44.2539 212.233C44.245 218.822 49.539 224.142 56.1317 224.151L265.912 224.437C272.513 224.446 277.874 219.141 277.883 212.552L278.053 87.8311C278.062 81.2348 272.715 75.8736 266.115 75.8647Z" fill="#549BEC"/>
<path d="M142.025 161.645L140.895 161.643L140.897 160.38L143.423 160.384L143.411 169.238L142.014 169.236L142.025 161.645Z" fill="#91C4F6"/>
<path d="M145.212 168.11C147.303 166.279 149.503 164.679 149.506 162.942C149.507 162.019 149.107 161.387 148.075 161.386C147.104 161.385 146.58 162.064 146.542 163.06L145.206 163.058C145.257 161.139 146.498 160.206 148.064 160.208C149.862 160.21 150.881 161.293 150.878 162.883C150.875 165.033 148.687 166.67 147.265 167.967L151.114 167.972L151.113 169.126L145.21 169.118L145.212 168.11Z" fill="#91C4F6"/>
<path d="M155.222 160.193C156.983 160.195 157.941 161.217 157.939 162.504C157.938 163.561 157.269 164.277 156.576 164.506V164.555C157.499 164.835 158.092 165.602 158.091 166.828C158.089 168.237 157.092 169.304 155.246 169.302C153.57 169.299 152.272 168.424 152.189 166.686L153.525 166.688C153.585 167.515 154.191 168.147 155.235 168.148C156.268 168.15 156.779 167.519 156.78 166.693C156.781 165.527 156.029 165.125 154.584 165.123L154.268 165.123L154.27 163.981L154.597 163.982C155.848 163.971 156.614 163.608 156.615 162.661C156.617 161.896 156.119 161.385 155.172 161.384C154.2 161.383 153.75 161.964 153.664 162.584L152.316 162.582C152.415 161.052 153.606 160.191 155.222 160.193Z" fill="#91C4F6"/>
<path d="M163.778 167.419L159.382 167.413L159.383 166.369L163.472 160.521L165.148 160.523L165.14 166.219L166.269 166.221L166.268 167.422L165.138 167.421L165.136 169.267L163.775 169.265L163.778 167.419ZM163.84 166.217L163.846 161.93L160.974 166.213L163.84 166.217Z" fill="#91C4F6"/>
<path d="M176.29 160.404L176.289 161.619L172.22 161.613L172.217 164.03C172.545 163.593 173.262 163.23 174.052 163.231C176.226 163.234 176.891 164.85 176.89 166.186C176.887 167.947 175.878 169.281 173.825 169.278C172.003 169.276 170.948 168.266 170.744 166.882L172.092 166.884C172.273 167.637 172.904 168.124 173.839 168.125C175.029 168.127 175.565 167.313 175.566 166.22C175.567 165.067 174.998 164.41 173.844 164.408C173.03 164.407 172.483 164.856 172.251 165.512L170.94 165.51L170.947 160.397L176.29 160.404Z" fill="#91C4F6"/>
<path d="M183.104 162.49C182.935 161.774 182.511 161.372 181.636 161.371C180.385 161.369 179.74 162.219 179.701 164.538C180.139 163.81 181.015 163.423 181.937 163.424C183.528 163.426 184.656 164.497 184.654 166.342C184.651 168.018 183.642 169.292 181.747 169.289C179.173 169.286 178.507 167.475 178.511 164.658C178.515 161.889 179.44 160.214 181.65 160.217C183.375 160.22 184.236 161.314 184.38 162.492L183.104 162.49ZM179.857 166.311C179.855 167.405 180.498 168.134 181.676 168.136C182.696 168.137 183.329 167.446 183.33 166.401C183.331 165.345 182.798 164.591 181.632 164.589C180.721 164.588 179.858 165.134 179.857 166.311Z" fill="#91C4F6"/>
<path d="M191.759 160.486L191.757 161.518L188.37 169.299L186.974 169.297L190.397 161.662L185.903 161.656L185.905 160.478L191.759 160.486Z" fill="#91C4F6"/>
<path d="M193.18 162.686C193.182 161.399 194.143 160.295 196.098 160.298C198.054 160.301 199.012 161.419 199.01 162.694C199.008 163.642 198.461 164.333 197.744 164.685C198.642 165.026 199.236 165.816 199.235 166.873C199.233 168.488 197.919 169.53 196.085 169.528C194.264 169.525 192.953 168.479 192.956 166.864C192.957 165.795 193.554 165.007 194.44 164.68C193.688 164.302 193.179 163.67 193.18 162.686ZM194.28 166.817C194.279 167.715 194.958 168.373 196.087 168.374C197.205 168.376 197.874 167.709 197.875 166.822C197.876 165.826 197.136 165.291 196.091 165.289C195.071 165.288 194.281 165.785 194.28 166.817ZM197.686 162.862C197.687 161.952 197.068 161.453 196.097 161.452C195.15 161.45 194.517 161.935 194.516 162.87C194.515 163.672 195.17 164.243 196.093 164.245C197.016 164.246 197.685 163.664 197.686 162.862Z" fill="#91C4F6"/>
<path d="M207.023 160.313C209.5 160.316 210.178 162.26 210.174 164.786C210.17 167.361 209.488 169.303 207.01 169.3C204.533 169.297 203.855 167.352 203.859 164.778C203.862 162.252 204.545 160.31 207.023 160.313ZM207.021 161.576C205.405 161.574 205.221 163.128 205.219 164.78C205.217 166.516 205.397 168.034 207.012 168.037C208.627 168.039 208.811 166.521 208.814 164.785C208.816 163.133 208.636 161.578 207.021 161.576Z" fill="#91C4F6"/>
<path d="M214.811 160.323C217.289 160.327 217.966 162.271 217.962 164.797C217.959 167.371 217.276 169.314 214.799 169.31C212.321 169.307 211.644 167.363 211.647 164.788C211.651 162.262 212.333 160.32 214.811 160.323ZM214.809 161.586C213.194 161.584 213.01 163.138 213.007 164.79C213.005 166.527 213.185 168.045 214.8 168.047C216.416 168.049 216.6 166.532 216.602 164.795C216.604 163.143 216.424 161.589 214.809 161.586Z" fill="#91C4F6"/>
<path d="M222.6 160.334C225.078 160.338 225.755 162.282 225.752 164.808C225.748 167.382 225.066 169.324 222.588 169.321C220.111 169.318 219.433 167.374 219.437 164.799C219.44 162.273 220.123 160.331 222.6 160.334ZM222.599 161.597C220.983 161.595 220.799 163.149 220.797 164.801C220.794 166.537 220.974 168.056 222.59 168.058C224.205 168.06 224.389 166.542 224.391 164.806C224.394 163.154 224.214 161.599 222.599 161.597Z" fill="#91C4F6"/>
<path d="M228.177 161.762L227.047 161.761L227.049 160.498L229.575 160.502L229.563 169.355L228.166 169.353L228.177 161.762Z" fill="#91C4F6"/>
<path d="M237.801 160.355C240.279 160.358 240.957 162.302 240.953 164.828C240.949 167.403 240.267 169.345 237.789 169.342C235.312 169.338 234.634 167.394 234.638 164.82C234.641 162.294 235.324 160.352 237.801 160.355ZM237.8 161.618C236.184 161.616 236 163.17 235.998 164.822C235.996 166.558 236.176 168.076 237.791 168.079C239.406 168.081 239.59 166.563 239.592 164.827C239.595 163.175 239.415 161.62 237.8 161.618Z" fill="#91C4F6"/>
<path d="M243.378 161.783L242.248 161.781L242.25 160.519L244.776 160.522L244.764 169.376L243.368 169.374L243.378 161.783Z" fill="#91C4F6"/>
<path d="M246.566 168.249C248.657 166.418 250.857 164.817 250.86 163.081C250.861 162.158 250.461 161.526 249.429 161.524C248.457 161.523 247.934 162.203 247.896 163.198L246.56 163.197C246.611 161.278 247.852 160.344 249.418 160.347C251.216 160.349 252.234 161.431 252.232 163.022C252.229 165.172 250.041 166.808 248.618 168.106L252.468 168.111L252.466 169.265L246.564 169.257L246.566 168.249Z" fill="#91C4F6"/>
<path d="M256.575 160.332C258.336 160.334 259.294 161.356 259.292 162.643C259.291 163.699 258.622 164.415 257.929 164.645V164.693C258.852 164.974 259.446 165.74 259.444 166.967C259.442 168.376 258.445 169.443 256.599 169.44C254.923 169.438 253.625 168.562 253.542 166.825L254.878 166.827C254.937 167.653 255.544 168.285 256.588 168.287C257.62 168.288 258.132 167.657 258.133 166.831C258.134 165.665 257.382 165.264 255.936 165.262L255.62 165.261L255.622 164.12L255.95 164.12C257.201 164.109 257.967 163.746 257.968 162.799C257.969 162.034 257.472 161.523 256.525 161.522C255.553 161.521 255.103 162.103 255.017 162.722L253.669 162.72C253.768 161.19 254.96 160.329 256.575 160.332Z" fill="#91C4F6"/>
<path d="M44.3911 103.543L44.3545 129.768L277.99 130.094L278.027 103.87L44.3911 103.543Z" fill="#2F627C"/>
<path d="M78.7875 123.72L73.762 123.713L73.7789 111.151L78.5691 111.157C81.2264 111.161 82.6344 112.627 82.6321 114.399C82.63 115.917 81.7067 116.838 80.4947 117.27C81.8323 117.507 82.9152 118.845 82.9131 120.346C82.9108 122.262 81.3537 123.724 78.7875 123.72ZM78.3865 112.838L75.8373 112.834L75.8324 116.431L78.3816 116.435C79.7188 116.437 80.5335 115.806 80.5352 114.649C80.5369 113.51 79.7237 112.84 78.3865 112.838ZM78.5419 118.117L75.8301 118.113L75.8248 122.035L78.6087 122.039C80.0002 122.041 80.8513 121.337 80.8528 120.126C80.8547 118.879 79.9154 118.119 78.5419 118.117Z" fill="#91C4F6"/>
<path d="M92.7336 121.172L87.4734 121.165L86.566 123.731L84.415 123.728L88.9331 111.154L91.3188 111.157L95.8034 123.744L93.634 123.741L92.7336 121.172ZM90.1227 113.649L88.0542 119.485L92.1577 119.491L90.1227 113.649Z" fill="#91C4F6"/>
<path d="M108.1 111.18L108.083 123.76L106.022 123.758L99.8348 114.368L99.8221 123.749L97.7616 123.746L97.7788 111.166L99.8393 111.169L106.026 120.54L106.039 111.177L108.1 111.18Z" fill="#91C4F6"/>
<path d="M112.869 118.145L112.862 123.767L110.801 123.764L110.818 111.201L112.879 111.204L112.871 116.934L117.759 111.211L120.344 111.215L114.877 117.498L120.417 123.777L117.724 123.774L112.869 118.145Z" fill="#91C4F6"/>
<path d="M132.699 111.068C135.32 111.072 137.577 112.395 138.532 114.855L136.056 114.851C135.389 113.512 134.197 112.878 132.696 112.876C130.202 112.872 128.393 114.641 128.389 117.48C128.385 120.317 130.19 122.11 132.684 122.113C134.184 122.115 135.378 121.484 136.049 120.147L138.525 120.15C137.564 122.608 135.303 123.906 132.681 123.902C129.139 123.897 126.269 121.254 126.274 117.477C126.279 113.717 129.156 111.064 132.699 111.068Z" fill="#91C4F6"/>
<path d="M148.509 121.249L143.249 121.242L142.342 123.807L140.19 123.804L144.709 111.23L147.094 111.233L151.578 123.82L149.409 123.817L148.509 121.249ZM145.898 113.726L143.829 119.562L147.933 119.567L145.898 113.726Z" fill="#91C4F6"/>
<path d="M157.892 111.266C160.875 111.27 162.337 112.989 162.334 115.032C162.332 116.514 161.535 118.104 159.419 118.625L162.521 123.835L160.062 123.831L157.177 118.803L155.604 118.801L155.597 123.825L153.537 123.823L153.554 111.26L157.892 111.266ZM157.89 112.946L155.612 112.943L155.607 117.155L157.884 117.158C159.493 117.16 160.218 116.276 160.219 115.029C160.221 113.764 159.499 112.949 157.89 112.946Z" fill="#91C4F6"/>
<path d="M175.749 117.617C175.743 121.485 173.101 123.849 169.071 123.844L164.967 123.838L164.984 111.275L169.088 111.281C173.118 111.286 175.754 113.73 175.749 117.617ZM169.073 122.163C172.037 122.167 173.63 120.47 173.634 117.614C173.638 114.74 172.05 112.966 169.085 112.962L167.043 112.959L167.03 122.16L169.073 122.163Z" fill="#91C4F6"/>
<path d="M121.759 178.566C121.757 180.154 120.464 181.448 118.872 181.445L76.8451 181.388C75.2607 181.386 73.9634 180.089 73.9657 178.501L73.9994 153.868C74.0016 152.284 75.3023 150.987 76.8867 150.989L118.913 151.046C120.505 151.049 121.795 152.349 121.793 153.934L121.759 178.566Z" fill="#91C4F6"/>
<path d="M272.801 401.546H141.24C140.727 401.546 140.312 401.13 140.312 400.617V371.894C140.312 371.381 140.727 370.965 141.24 370.965H272.801C273.314 370.965 273.73 371.381 273.73 371.894V400.617C273.73 401.13 273.314 401.546 272.801 401.546Z" fill="#2F627C"/>
<path d="M167.545 390.149C164.784 390.149 162.778 388.228 162.778 385.244C162.778 382.243 164.733 380.339 167.545 380.339C170.289 380.339 172.227 382.209 172.227 385.038C172.227 385.347 172.21 385.656 172.158 385.964H165.212C165.332 387.37 166.293 388.159 167.493 388.159C168.522 388.159 169.089 387.645 169.397 387.01H171.987C171.473 388.76 169.895 390.149 167.545 390.149ZM165.23 384.352H169.74C169.706 383.1 168.711 382.311 167.477 382.311C166.328 382.311 165.418 383.049 165.23 384.352Z" fill="#CDEEFF"/>
<path d="M178.389 385.398H176.383V389.995H173.982V378.024H178.389C181.271 378.024 182.711 379.653 182.711 381.728C182.711 383.546 181.477 385.398 178.389 385.398ZM178.287 383.461C179.641 383.461 180.242 382.792 180.242 381.728C180.242 380.631 179.641 379.979 178.287 379.979H176.383V383.461H178.287Z" fill="#CDEEFF"/>
<path d="M188.136 380.339C189.662 380.339 190.708 381.06 191.275 381.849V380.493H193.693V389.995H191.275V388.605C190.708 389.428 189.628 390.149 188.119 390.149C185.718 390.149 183.797 388.176 183.797 385.21C183.798 382.243 185.718 380.339 188.136 380.339ZM188.753 382.448C187.467 382.448 186.249 383.409 186.249 385.21C186.249 387.01 187.467 388.04 188.753 388.04C190.074 388.04 191.275 387.045 191.275 385.244C191.275 383.443 190.074 382.448 188.753 382.448Z" fill="#CDEEFF"/>
<path d="M202.582 380.493H205.138L199.255 394.487H196.7L198.758 389.754L194.951 380.493H197.643L200.096 387.13L202.582 380.493Z" fill="#CDEEFF"/>
<path d="M219.721 384.747C219.721 383.237 218.881 382.448 217.612 382.448C216.325 382.448 215.485 383.237 215.485 384.747V389.995H213.084V384.747C213.084 383.237 212.243 382.448 210.975 382.448C209.671 382.448 208.831 383.237 208.831 384.747V389.995H206.43V380.493H208.831V381.643C209.431 380.854 210.443 380.356 211.626 380.356C213.102 380.356 214.319 380.991 214.971 382.175C215.588 381.094 216.84 380.356 218.229 380.356C220.51 380.356 222.122 381.797 222.122 384.421V389.995H219.721V384.747Z" fill="#CDEEFF"/>
<path d="M228.563 390.149C225.801 390.149 223.795 388.228 223.795 385.244C223.795 382.243 225.75 380.339 228.563 380.339C231.307 380.339 233.244 382.209 233.244 385.038C233.244 385.347 233.228 385.656 233.176 385.964H226.23C226.35 387.37 227.311 388.159 228.511 388.159C229.54 388.159 230.107 387.645 230.415 387.01H233.005C232.49 388.76 230.912 390.149 228.563 390.149ZM226.247 384.352H230.758C230.724 383.1 229.729 382.311 228.494 382.311C227.345 382.311 226.436 383.049 226.247 384.352Z" fill="#CDEEFF"/>
<path d="M241.653 384.747C241.653 383.221 240.813 382.397 239.544 382.397C238.241 382.397 237.401 383.221 237.401 384.747V389.995H235V380.493H237.401V381.677C238.018 380.871 239.047 380.356 240.264 380.356C242.477 380.356 244.055 381.797 244.055 384.421V389.995H241.653V384.747Z" fill="#CDEEFF"/>
<path d="M246.719 382.466H245.587V380.493H246.719V378.144H249.137V380.493H251.264V382.466H249.137V387.062C249.137 387.697 249.395 387.971 250.149 387.971H251.264V389.995H249.755C247.937 389.995 246.719 389.223 246.719 387.045V382.466Z" fill="#CDEEFF"/>
<path d="M62.5913 58.5231C54.2218 50.1532 40.6523 50.1532 32.2828 58.5231C30.9577 57.1978 29.6324 55.873 28.3071 54.5477C38.8724 43.9829 56.0015 43.9829 66.5667 54.5477C65.2416 55.873 63.9164 57.1978 62.5913 58.5231Z" fill="#CDEEFF"/>
<path d="M67.579 48.6842C56.4548 37.5601 38.4192 37.5601 27.295 48.6842C25.9699 47.3589 24.6449 46.0341 23.3196 44.7088C36.6393 31.3893 58.2348 31.3893 71.5545 44.7088C70.2292 46.0341 68.9041 47.3589 67.579 48.6842Z" fill="#CDEEFF"/>
<path d="M74.2083 38.8459C59.4229 24.0601 35.4512 24.0601 20.6657 38.8459C19.3406 37.5204 18.0155 36.1958 16.6902 34.8703C33.6713 17.8889 61.2028 17.8889 78.1837 34.8703C76.8587 36.1952 75.5336 37.5202 74.2083 38.8459Z" fill="#CDEEFF"/>
<path d="M137.159 305.557L142.919 303.412L189.734 303.22L195.007 304.857L137.159 305.557Z" fill="#11405C"/>
<path d="M137.159 305.557L141.785 337.932C141.785 337.932 142.61 341.488 145.04 341.459L187.996 340.94C190.426 340.91 191.169 337.335 191.169 337.335L195.007 304.857L137.159 305.557ZM147.431 336.95C147.378 336.958 147.327 336.962 147.277 336.963C146.69 336.97 146.175 336.508 146.088 335.859L143.104 313.133C143.01 312.433 143.465 311.78 144.111 311.681C144.161 311.673 144.211 311.669 144.258 311.668C144.849 311.661 145.371 312.13 145.457 312.779L148.441 335.498C148.535 336.202 148.084 336.854 147.431 336.95ZM153.64 336.955C153.614 336.956 153.59 336.96 153.564 336.96C152.939 336.968 152.408 336.455 152.358 335.772L150.701 312.891C150.652 312.187 151.138 311.567 151.795 311.511C151.82 311.511 151.845 311.507 151.87 311.507C152.492 311.5 153.024 312.016 153.073 312.695L154.729 335.576C154.782 336.28 154.293 336.9 153.64 336.955ZM160.353 336.885L160.297 336.886C159.668 336.893 159.137 336.363 159.1 335.676L157.849 312.768C157.809 312.06 158.311 311.455 158.964 311.414L159.021 311.413C159.653 311.405 160.184 311.936 160.221 312.623L161.472 335.53C161.512 336.239 161.01 336.844 160.353 336.885ZM167.932 335.522C167.94 336.234 167.416 336.814 166.756 336.822C166.429 336.826 166.132 336.687 165.912 336.456C165.696 336.225 165.56 335.905 165.556 335.551L165.278 312.609C165.27 311.897 165.794 311.317 166.448 311.309C166.778 311.305 167.078 311.444 167.295 311.675C167.514 311.903 167.65 312.223 167.654 312.581L167.932 335.522ZM174.388 335.491C174.365 336.178 173.847 336.722 173.218 336.73L173.161 336.73C172.504 336.705 171.991 336.112 172.011 335.403L172.708 312.472C172.731 311.785 173.249 311.241 173.878 311.233L173.935 311.233C174.592 311.258 175.105 311.851 175.086 312.56L174.388 335.491ZM181.127 335.424C181.094 336.108 180.579 336.633 179.954 336.641C179.928 336.641 179.903 336.638 179.878 336.638C179.224 336.599 178.72 335.991 178.752 335.285L179.855 312.371C179.888 311.691 180.406 311.162 181.029 311.154C181.054 311.154 181.079 311.157 181.104 311.157C181.762 311.197 182.265 311.805 182.23 312.51L181.127 335.424ZM189.835 312.568L187.397 335.359C187.33 336.011 186.823 336.484 186.235 336.492C186.185 336.492 186.135 336.489 186.081 336.483C185.43 336.403 184.963 335.762 185.036 335.055L187.474 312.271C187.541 311.62 188.051 311.139 188.642 311.132C188.689 311.131 188.739 311.134 188.79 311.141C189.441 311.224 189.908 311.866 189.835 312.568Z" fill="#549BEC"/>
<path d="M150.53 309.73C150.337 310.498 149.559 310.963 148.792 310.77C148.024 310.578 147.559 309.799 147.751 309.032C147.944 308.265 148.723 307.799 149.49 307.992C150.257 308.184 150.723 308.963 150.53 309.73Z" fill="#11405C"/>
<path d="M183.598 309.057C183.405 309.824 182.627 310.29 181.86 310.097C181.092 309.904 180.627 309.125 180.819 308.358C181.012 307.591 181.791 307.125 182.558 307.318C183.325 307.511 183.791 308.289 183.598 309.057Z" fill="#11405C"/>
<path d="M149.528 310.288L139.767 323.812L139.434 321.465L149.528 310.288Z" fill="#11405C"/>
<path d="M182.378 310.14L192.969 322.102L192.786 325.226L182.378 310.14Z" fill="#11405C"/>
<path d="M196.731 325.049C197.086 324.734 197.045 324.103 196.64 323.645L183.13 308.385C182.724 307.927 182.102 307.81 181.746 308.125C181.391 308.44 181.432 309.072 181.837 309.529L195.347 324.789C195.753 325.247 196.375 325.364 196.731 325.049Z" fill="#91C4F6"/>
<path d="M134.635 325.808C134.279 325.494 134.32 324.862 134.726 324.404L148.236 309.145C148.641 308.687 149.264 308.569 149.619 308.884C149.975 309.198 149.934 309.831 149.528 310.288L136.018 325.548C135.612 326.006 134.99 326.123 134.635 325.808Z" fill="#91C4F6"/>
<path d="M212.357 311.327H257.056C258.35 311.327 259.399 310.277 259.399 308.982C259.399 307.688 258.35 306.639 257.056 306.639H212.357C211.062 306.639 210.012 307.688 210.012 308.982C210.012 310.277 211.062 311.327 212.357 311.327Z" fill="white"/>
<path d="M264.608 311.327H270.982C272.275 311.327 273.325 310.277 273.325 308.982C273.325 307.688 272.275 306.639 270.982 306.639H264.608C263.314 306.639 262.264 307.688 262.264 308.982C262.264 310.277 263.314 311.327 264.608 311.327Z" fill="white"/>
<path d="M222.12 331.639H212.357C211.062 331.639 210.012 332.688 210.012 333.983C210.012 335.278 211.062 336.328 212.357 336.328H222.12C223.414 336.328 224.463 335.278 224.463 333.983C224.463 332.688 223.414 331.639 222.12 331.639Z" fill="white"/>
<path d="M246.339 331.639H229.672C228.378 331.639 227.328 332.688 227.328 333.983C227.328 335.278 228.378 336.328 229.672 336.328H246.339C247.634 336.328 248.684 335.278 248.684 333.983C248.684 332.688 247.634 331.639 246.339 331.639Z" fill="white"/>
<path d="M270.982 319.139H243.995C242.701 319.139 241.651 320.189 241.651 321.483C241.651 322.778 242.701 323.826 243.995 323.826H270.982C272.275 323.826 273.325 322.778 273.325 321.483C273.325 320.189 272.276 319.139 270.982 319.139Z" fill="white"/>
<path d="M212.357 323.826H236.442C237.737 323.826 238.787 322.777 238.787 321.482C238.787 320.189 237.737 319.139 236.442 319.139H212.357C211.062 319.139 210.012 320.188 210.012 321.482C210.012 322.777 211.062 323.826 212.357 323.826Z" fill="white"/>
<path d="M172.029 273.084C168.91 272.818 166.686 271.15 166.613 268.249H170.24C170.337 269.361 170.917 270.11 172.029 270.352V265.734C169.539 265.106 166.613 264.405 166.613 260.827C166.613 257.974 168.886 256.112 172.029 255.871V253.913H173.576V255.871C176.598 256.112 178.629 257.732 178.846 260.609H175.196C175.099 259.666 174.52 258.941 173.576 258.651V263.22C176.091 263.873 179.04 264.526 179.04 268.103C179.04 270.569 177.106 272.867 173.576 273.108V275.066H172.029V273.084H172.029ZM172.029 262.761V258.578C170.917 258.747 170.143 259.425 170.143 260.658C170.143 261.794 170.917 262.374 172.029 262.761ZM173.576 266.17V270.401C174.809 270.183 175.535 269.337 175.535 268.249C175.534 267.113 174.712 266.556 173.576 266.17Z" fill="white"/>
<path d="M190.103 258.458H187.757V255.339H193.584V272.963H190.103V258.458Z" fill="white"/>
<path d="M198.802 273.132C197.569 273.132 196.699 272.262 196.699 271.15C196.699 270.038 197.569 269.168 198.802 269.168C199.987 269.168 200.857 270.038 200.857 271.15C200.857 272.262 199.987 273.132 198.802 273.132Z" fill="white"/>
<path d="M215.046 255.291V258.265H207.213V262.399C207.866 261.601 209.196 260.972 210.67 260.972C214.78 260.972 216.182 264.067 216.182 266.799C216.182 270.401 214.103 272.963 210.09 272.963C206.294 272.963 204.119 270.86 203.828 267.983H207.116C207.407 269.216 208.398 270.11 210.042 270.11C212.024 270.11 212.918 268.708 212.918 266.847C212.918 264.865 211.928 263.776 210.017 263.776C208.615 263.776 207.721 264.55 207.358 265.638H204.119V255.291H215.046V255.291Z" fill="white"/>
<path d="M225.29 255.001C230.27 255.001 231.818 258.82 231.818 263.921C231.818 269.07 230.27 272.915 225.29 272.915C220.31 272.915 218.762 269.07 218.762 263.921C218.762 258.82 220.31 255.001 225.29 255.001ZM225.29 258.143C222.437 258.143 222.098 260.899 222.098 263.921C222.098 267.064 222.437 269.772 225.29 269.772C228.143 269.772 228.481 267.064 228.481 263.921C228.481 260.899 228.143 258.143 225.29 258.143Z" fill="white"/>
<path d="M240.901 255.001C245.881 255.001 247.428 258.82 247.428 263.921C247.428 269.07 245.881 272.915 240.901 272.915C235.92 272.915 234.373 269.07 234.373 263.921C234.373 258.82 235.92 255.001 240.901 255.001ZM240.901 258.143C238.048 258.143 237.709 260.899 237.709 263.921C237.709 267.064 238.048 269.772 240.901 269.772C243.753 269.772 244.091 267.064 244.091 263.921C244.091 260.899 243.753 258.143 240.901 258.143Z" fill="white"/>
<path d="M339.06 168.443C339.06 168.443 411.238 145.669 416.574 148.016C421.91 150.363 422.61 158.809 421.296 164.552C418.307 177.614 343.05 181.258 343.05 181.258L339.06 168.443Z" fill="#D7A28E"/>
<path d="M347.711 165.754C348.482 165.558 406.138 146.565 406.52 149.23C406.903 151.895 347.711 165.754 347.711 165.754Z" fill="#C18C7C"/>
<path d="M349.756 206.688C350.611 202.155 351.467 197.622 352.323 193.089C353.057 189.195 353.988 185.268 354.202 181.3C354.588 174.166 351.237 168.076 344.682 165.033C341.357 163.49 337.66 162.897 334.016 162.874C331.286 162.856 328.07 163.035 326.296 165.428C324.286 168.14 326.194 170.939 328.086 173.101C330.299 175.63 335.555 177.803 335.28 181.652C335.092 184.288 333.01 186.24 331.286 188.01C329.867 189.467 328.521 190.983 327.281 192.595C325.048 195.5 321.451 199.87 321.816 203.782C321.91 204.793 323.505 204.833 323.41 203.811C323.1 200.49 326.29 196.572 328.195 194.017C330.198 191.332 332.746 189.164 334.797 186.541C336.341 184.567 337.434 181.96 336.591 179.454C335.747 176.946 333.234 175.659 331.337 174.058C330.002 172.932 328.714 171.601 327.792 170.112C326.251 167.623 327.58 165.506 330.205 164.781C333.489 163.873 337.763 164.477 340.975 165.37C348.315 167.412 352.935 173.206 352.628 180.9C352.465 184.987 351.471 189.043 350.715 193.05C349.885 197.446 349.056 201.841 348.226 206.237C348.037 207.237 349.566 207.696 349.756 206.688Z" fill="#CDEEFF"/>
<path d="M366.21 310.087L289.037 296.329L303.759 185.063L371.235 190.938L366.21 310.087Z" fill="#91C4F6"/>
<path d="M371.235 190.938L374.299 193.563L376.544 191.401L382.62 302.901L376.649 304.266L366.21 310.086L371.235 190.938Z" fill="#549BEC"/>
<path d="M321.034 202.664C321.034 204.276 320.1 205.582 318.949 205.582C317.798 205.582 316.865 204.276 316.865 202.664C316.865 201.053 317.798 199.746 318.949 199.746C320.1 199.747 321.034 201.053 321.034 202.664Z" fill="#549BEC"/>
<path d="M347.18 203.927C347.18 205.49 346.275 206.757 345.159 206.757C344.043 206.757 343.138 205.49 343.138 203.927C343.138 202.365 344.043 201.098 345.159 201.098C346.275 201.098 347.18 202.365 347.18 203.927Z" fill="#549BEC"/>
<path d="M345.904 204.976C346.759 200.443 347.615 195.91 348.47 191.377C349.205 187.483 350.136 183.556 350.35 179.588C350.736 172.454 347.385 166.364 340.83 163.321C337.505 161.778 333.808 161.185 330.164 161.162C327.434 161.144 324.218 161.323 322.444 163.716C320.434 166.428 322.342 169.227 324.234 171.389C326.447 173.918 331.702 176.09 331.428 179.94C331.24 182.576 329.158 184.528 327.434 186.298C326.015 187.755 324.669 189.271 323.429 190.884C321.196 193.788 317.599 198.158 317.964 202.07C318.058 203.081 319.653 203.121 319.558 202.098C319.248 198.778 322.438 194.859 324.343 192.305C326.346 189.62 328.894 187.452 330.945 184.829C332.489 182.855 333.582 180.248 332.739 177.741C331.895 175.234 329.382 173.946 327.485 172.346C326.15 171.22 324.862 169.889 323.94 168.4C322.399 165.911 323.728 163.793 326.353 163.068C329.637 162.161 333.911 162.764 337.123 163.658C344.463 165.7 349.083 171.494 348.776 179.188C348.613 183.275 347.619 187.331 346.863 191.338C346.033 195.733 345.204 200.129 344.374 204.525C344.185 205.526 345.714 205.984 345.904 204.976Z" fill="#CDEEFF"/>
<path d="M333.449 165.536C329.391 165.15 325.728 166.489 324.227 167.139C321.68 168.248 314.038 174.937 314.038 174.937C314.038 174.937 314.763 176.127 315.263 176.396C316.077 176.833 317.733 176.36 319.301 175.343C318.355 176.24 316.783 178.051 316.783 178.051C316.783 178.051 317.962 179.187 318.523 179.292C319.275 179.434 320.696 178.886 321.663 178.212C321.061 178.918 319.974 180.051 319.974 180.051C319.974 180.051 321.441 181.181 322.013 181.202C323.101 181.241 324.674 180.229 325.978 179.274C325.133 180.097 324.025 181.83 324.025 181.83C324.025 181.83 325.534 182.575 326.054 182.607C328.07 182.731 332.955 178.939 332.955 178.939C337.79 182.194 341.491 181.655 344.038 181.043C344.651 180.888 341.591 167.951 341.591 167.951C341.591 167.951 336.479 165.817 333.449 165.536Z" fill="#D7A28E"/>
<path d="M324.856 171.261C324.88 171.311 324.549 171.511 324.035 171.858C323.52 172.205 322.82 172.699 322.065 173.276C320.555 174.426 319.371 175.418 319.301 175.343C319.233 175.271 320.316 174.149 321.845 172.985C322.607 172.402 323.344 171.933 323.902 171.636C324.461 171.34 324.837 171.22 324.856 171.261Z" fill="#C18C7C"/>
<path d="M326.873 174.211C326.899 174.257 326.607 174.481 326.138 174.842C325.626 175.241 325.002 175.727 324.312 176.265C322.889 177.383 321.73 178.289 321.663 178.212C321.598 178.137 322.654 177.103 324.087 175.978C324.802 175.415 325.479 174.939 325.992 174.629C326.505 174.318 326.849 174.17 326.873 174.211Z" fill="#C18C7C"/>
<path d="M328.526 177.295C328.59 177.373 327.97 177.982 327.142 178.655C326.314 179.328 325.591 179.81 325.527 179.732C325.463 179.654 326.083 179.045 326.911 178.372C327.74 177.699 328.463 177.217 328.526 177.295Z" fill="#C18C7C"/>
<path d="M327.136 107.602C327.136 107.602 331.034 105.5 326.59 101.546C322.146 97.5915 318.969 99.9954 319.455 101.86C319.941 103.724 320.115 104.956 323.247 105.913C323.247 105.913 320.433 106.354 320.666 108.525C320.901 110.697 322.742 111.848 322.742 111.848C322.742 111.848 320.162 111.723 319.761 112.764C319.359 113.804 320.312 116.453 322.943 117.519C322.943 117.519 320.147 118.296 321.889 121.265C323.631 124.234 324.142 123.236 324.142 123.236L324.071 127.258C324.071 127.258 329.301 125.61 327.444 119.49C327.444 119.49 330.702 116.938 326.943 113.862C326.943 113.863 331.73 110.801 327.136 107.602Z" fill="#D7A28E"/>
<path d="M327.083 107.613C326.961 107.757 326.152 107.206 325.069 106.759C323.989 106.294 323.045 106.12 323.044 105.955C323.033 105.772 324.125 105.67 325.312 106.181C326.507 106.678 327.193 107.501 327.083 107.613Z" fill="#C18C7C"/>
<path d="M327.076 113.863C327.011 113.929 326.774 113.805 326.394 113.626C326.013 113.445 325.479 113.209 324.879 112.953C323.681 112.441 322.693 112.018 322.742 111.849C322.789 111.685 323.88 111.845 325.127 112.376C325.749 112.642 326.287 112.958 326.635 113.253C326.985 113.548 327.134 113.806 327.076 113.863Z" fill="#C18C7C"/>
<path d="M327.444 119.491C327.369 119.55 327.144 119.381 326.762 119.168C326.376 118.957 325.82 118.708 325.175 118.48C323.886 118.019 322.782 117.742 322.808 117.566C322.827 117.399 324.014 117.4 325.388 117.89C326.072 118.132 326.66 118.474 327.022 118.809C327.384 119.149 327.506 119.445 327.444 119.491Z" fill="#C18C7C"/>
<path d="M447.147 224.774L425.821 234.221L426.938 244.529L444.957 285.227L447.849 283.959L469.166 274.513L472.05 273.233L454.02 232.544L447.147 224.774ZM439.471 236.266C438.221 236.821 436.76 236.244 436.201 235C435.648 233.74 436.204 232.268 437.468 231.709C438.713 231.159 440.196 231.718 440.758 232.977C441.302 234.238 440.735 235.707 439.471 236.266Z" fill="#FFC439"/>
<path d="M442.979 248.073L442.237 246.402L445.132 245.126L445.885 246.788C448.628 246.202 450.774 247.56 452.121 250.623L452.439 251.324L449.08 252.817L448.661 251.885C447.951 250.267 447.031 249.937 445.912 250.442C444.784 250.936 444.411 251.836 445.119 253.451C447.174 258.085 454.214 255.24 457.066 261.705C458.412 264.757 457.962 267.317 455.678 268.939L456.411 270.587L453.508 271.876L452.772 270.224C449.996 270.836 447.846 269.439 446.492 266.377L445.817 264.825L449.157 263.354L449.937 265.12C450.659 266.729 451.625 267.005 452.744 266.5C453.878 266.001 454.334 265.107 453.619 263.493C451.563 258.846 444.526 261.695 441.68 255.249C440.332 252.217 440.735 249.724 442.979 248.073Z" fill="#DBA12C"/>
<path d="M202.724 42.727L195.076 82.106C195.076 82.106 219.847 94.6382 220.75 93.7311C221.652 92.8241 237.289 55.587 237.289 55.587L202.724 42.727Z" fill="#F2CD33"/>
<path d="M215.402 60.1012C217.124 60.8498 217.791 62.3897 216.562 64.2264C215.351 66.071 213.426 66.4843 211.703 65.736C209.963 64.9796 209.296 63.4397 210.507 61.5951C211.736 59.7584 213.68 59.3529 215.402 60.1012ZM221.107 62.7957L224.098 64.0958L209.306 72.841L206.314 71.541L221.107 62.7957ZM212.664 62.5326C212.157 63.3036 212.245 63.7945 212.789 64.0307C213.333 64.2671 213.916 64.0676 214.423 63.2966C214.93 62.5256 214.824 62.0268 214.28 61.7904C213.736 61.5542 213.172 61.7616 212.664 62.5326ZM218.745 69.9167C220.467 70.6652 221.116 72.1972 219.887 74.034C218.676 75.8786 216.751 76.2919 215.028 75.5436C213.306 74.795 212.639 73.2551 213.868 71.4184C215.079 69.5736 217.023 69.1682 218.745 69.9167ZM215.989 72.3399C215.482 73.1109 215.57 73.6018 216.132 73.8461C216.658 74.0745 217.24 73.8752 217.748 73.1042C218.255 72.3332 218.148 71.8344 217.623 71.6061C217.079 71.3696 216.497 71.5692 215.989 72.3399Z" fill="#DBA12C"/>
<path d="M397.42 11.639L418.86 63.5307C418.86 63.5307 457.456 59.0624 457.811 57.3071C458.166 55.5516 447.71 0 447.71 0L397.42 11.639Z" fill="#F2CD33"/>
<path d="M425.628 22.1532C428.217 21.699 430.184 22.9829 430.165 26.0762C430.173 29.1647 428.243 31.1325 425.654 31.5869C423.038 32.0458 421.071 30.7618 421.063 27.6732C421.082 24.58 423.039 22.6074 425.628 22.1532ZM434.369 20.9006L438.865 20.1118L428.333 41.7344L423.837 42.5232L434.369 20.9006ZM424.306 27.1042C424.308 28.396 424.79 28.9013 425.607 28.758C426.425 28.6144 426.951 27.9325 426.949 26.6405C426.947 25.3487 426.438 24.8483 425.621 24.9916C424.803 25.1352 424.304 25.8125 424.306 27.1042ZM437.103 31.0388C439.692 30.5846 441.631 31.8734 441.612 34.9667C441.621 38.0552 439.691 40.023 437.102 40.4774C434.513 40.9316 432.546 39.6474 432.565 36.5541C432.557 33.4654 434.514 31.493 437.103 31.0388ZM435.753 35.9947C435.755 37.2865 436.237 37.7918 437.082 37.6436C437.872 37.5049 438.399 36.8228 438.396 35.531C438.395 34.2392 437.885 33.7388 437.095 33.8772C436.278 34.0208 435.751 34.7027 435.753 35.9947Z" fill="#DBA12C"/>
</svg>
