<svg width="116" height="27" viewBox="0 0 116 27" fill="none" xmlns="http://www.w3.org/2000/svg">
<path d="M39.42 21V7H48.32V8.72H41.54V13.08H47.72V14.76H41.54V19.28H48.32V21H39.42ZM54.1258 21.24C53.2858 21.24 52.5924 21.1 52.0458 20.82C51.4991 20.54 51.0924 20.1733 50.8258 19.72C50.5591 19.2533 50.4258 18.7467 50.4258 18.2C50.4258 17.24 50.7991 16.48 51.5458 15.92C52.2924 15.36 53.3591 15.08 54.7458 15.08H57.3458V14.9C57.3458 14.1267 57.1324 13.5467 56.7058 13.16C56.2924 12.7733 55.7524 12.58 55.0858 12.58C54.4991 12.58 53.9858 12.7267 53.5458 13.02C53.1191 13.3 52.8591 13.72 52.7658 14.28H50.6458C50.7124 13.56 50.9524 12.9467 51.3658 12.44C51.7924 11.92 52.3258 11.5267 52.9658 11.26C53.6191 10.98 54.3324 10.84 55.1058 10.84C56.4924 10.84 57.5658 11.2067 58.3258 11.94C59.0858 12.66 59.4658 13.6467 59.4658 14.9V21H57.6258L57.4458 19.3C57.1658 19.8467 56.7591 20.3067 56.2258 20.68C55.6924 21.0533 54.9924 21.24 54.1258 21.24ZM54.5458 19.52C55.1191 19.52 55.5991 19.3867 55.9858 19.12C56.3858 18.84 56.6924 18.4733 56.9058 18.02C57.1324 17.5667 57.2724 17.0667 57.3258 16.52H54.9658C54.1258 16.52 53.5258 16.6667 53.1658 16.96C52.8191 17.2533 52.6458 17.62 52.6458 18.06C52.6458 18.5133 52.8124 18.8733 53.1458 19.14C53.4924 19.3933 53.9591 19.52 54.5458 19.52ZM65.8977 21.24C64.6443 21.24 63.611 20.9333 62.7977 20.32C61.9843 19.7067 61.5177 18.8933 61.3977 17.88H63.5377C63.6443 18.3333 63.8977 18.7267 64.2977 19.06C64.6977 19.38 65.2243 19.54 65.8777 19.54C66.5177 19.54 66.9843 19.4067 67.2777 19.14C67.571 18.8733 67.7177 18.5667 67.7177 18.22C67.7177 17.7133 67.511 17.3733 67.0977 17.2C66.6977 17.0133 66.1377 16.8467 65.4177 16.7C64.8577 16.58 64.2977 16.42 63.7377 16.22C63.191 16.02 62.731 15.74 62.3577 15.38C61.9977 15.0067 61.8177 14.5067 61.8177 13.88C61.8177 13.0133 62.151 12.2933 62.8177 11.72C63.4843 11.1333 64.4177 10.84 65.6177 10.84C66.7243 10.84 67.6177 11.1067 68.2977 11.64C68.991 12.1733 69.3977 12.9267 69.5177 13.9H67.4777C67.411 13.4733 67.211 13.14 66.8777 12.9C66.5577 12.66 66.1243 12.54 65.5777 12.54C65.0443 12.54 64.631 12.6533 64.3377 12.88C64.0443 13.0933 63.8977 13.3733 63.8977 13.72C63.8977 14.0667 64.0977 14.34 64.4977 14.54C64.911 14.74 65.451 14.92 66.1177 15.08C66.7843 15.2267 67.3977 15.4 67.9577 15.6C68.531 15.7867 68.991 16.0667 69.3377 16.44C69.6843 16.8133 69.8577 17.36 69.8577 18.08C69.871 18.9867 69.5177 19.74 68.7977 20.34C68.091 20.94 67.1243 21.24 65.8977 21.24ZM72.8438 25.4L75.2238 20.18H74.6438L70.7238 11.08H73.0238L76.0638 18.42L79.2438 11.08H81.4838L75.0838 25.4H72.8438ZM83.3067 21V7H88.2067C89.3001 7 90.2067 7.18667 90.9267 7.56C91.6467 7.92 92.1801 8.42 92.5267 9.06C92.8867 9.68667 93.0667 10.4 93.0667 11.2C93.0667 11.96 92.8934 12.66 92.5467 13.3C92.2134 13.9267 91.6867 14.4267 90.9667 14.8C90.2467 15.1733 89.3267 15.36 88.2067 15.36H85.4267V21H83.3067ZM85.4267 13.62H88.1067C89.1067 13.62 89.8201 13.4067 90.2467 12.98C90.6867 12.54 90.9067 11.9467 90.9067 11.2C90.9067 10.4267 90.6867 9.82667 90.2467 9.4C89.8201 8.96 89.1067 8.74 88.1067 8.74H85.4267V13.62ZM97.8953 21.24C97.0553 21.24 96.362 21.1 95.8153 20.82C95.2686 20.54 94.862 20.1733 94.5953 19.72C94.3286 19.2533 94.1953 18.7467 94.1953 18.2C94.1953 17.24 94.5686 16.48 95.3153 15.92C96.062 15.36 97.1286 15.08 98.5153 15.08H101.115V14.9C101.115 14.1267 100.902 13.5467 100.475 13.16C100.062 12.7733 99.522 12.58 98.8553 12.58C98.2686 12.58 97.7553 12.7267 97.3153 13.02C96.8886 13.3 96.6286 13.72 96.5353 14.28H94.4153C94.482 13.56 94.722 12.9467 95.1353 12.44C95.562 11.92 96.0953 11.5267 96.7353 11.26C97.3886 10.98 98.102 10.84 98.8753 10.84C100.262 10.84 101.335 11.2067 102.095 11.94C102.855 12.66 103.235 13.6467 103.235 14.9V21H101.395L101.215 19.3C100.935 19.8467 100.529 20.3067 99.9953 20.68C99.462 21.0533 98.762 21.24 97.8953 21.24ZM98.3153 19.52C98.8886 19.52 99.3686 19.3867 99.7553 19.12C100.155 18.84 100.462 18.4733 100.675 18.02C100.902 17.5667 101.042 17.0667 101.095 16.52H98.7353C97.8953 16.52 97.2953 16.6667 96.9353 16.96C96.5886 17.2533 96.4153 17.62 96.4153 18.06C96.4153 18.5133 96.582 18.8733 96.9153 19.14C97.262 19.3933 97.7286 19.52 98.3153 19.52ZM106.555 25.4L108.935 20.18H108.355L104.435 11.08H106.735L109.775 18.42L112.955 11.08H115.195L108.795 25.4H106.555Z" fill="#170F49"/>
<rect x="3" y="3" width="23.819" height="20.662" rx="2" fill="#549BEC" stroke="#549BEC" stroke-width="5" stroke-miterlimit="10" stroke-linecap="round" stroke-linejoin="round"/>
<path d="M26 9.54587H16.6345C15.53 9.54587 14.6345 10.4413 14.6345 11.5459V15.1158C14.6345 16.2204 15.53 17.1158 16.6345 17.1158H26C27.1046 17.1158 28 16.2204 28 15.1158V11.5459C28 10.4413 27.1046 9.54587 26 9.54587Z" fill="#575084"/>
<circle cx="18.2924" cy="13.3308" r="1.89249" fill="white"/>
</svg>
